<?xml version="1.0" encoding="iso-8859-1"?>
<!-- Generator: Adobe Illustrator 19.0.0, SVG Export Plug-In . SVG Version: 6.00 Build 0)  -->
<svg version="1.1" id="Capa_1" xmlns="http://www.w3.org/2000/svg" xmlns:xlink="http://www.w3.org/1999/xlink" x="0px" y="0px"
	 viewBox="0 0 512 512" style="enable-background:new 0 0 512 512;" xml:space="preserve">
<g>
	<g>
		<path d="M346,452h-35.728l15-30H186.728l15,30H166c-24.853,0-45,20.147-45,45c0,8.284,6.716,15,15,15h240c8.284,0,15-6.716,15-15
			C391,472.147,370.853,452,346,452z" fill="#E80000"/>
	</g>
</g>
<g>
	<g>
		<path d="M0,332v15c0,24.814,20.186,45,45,45h422c24.814,0,45-20.186,45-45v-15H0z" fill="#E80000"/>
	</g>
</g>
<g>
	<g>
		<path d="M256,121c-8.276,0-15,6.724-15,15v60c0,8.276,6.724,15,15,15s15-6.724,15-15v-60C271,127.724,264.276,121,256,121z" fill="#E80000"/>
	</g>
</g>
<g>
	<g>
		<path d="M467,0H45C20.186,0,0,20.186,0,45v257h512V45C512,20.186,491.814,0,467,0z M181,226c0,8.291-6.709,15-15,15
			s-15-6.709-15-15v-15h-45c-4.819,0-9.346-2.314-12.173-6.226c-2.813-3.911-3.589-8.95-2.051-13.521l30-90
			c2.622-7.866,11.016-12.129,18.97-9.478c7.852,2.607,12.1,11.104,9.478,18.97L126.815,181H151v-15c0-8.291,6.709-15,15-15
			s15,6.709,15,15V226z M301,196c0,24.814-20.186,45-45,45c-24.814,0-45-20.186-45-45v-60c0-24.814,20.186-45,45-45
			c24.814,0,45,20.186,45,45V196z M421,226c0,8.291-6.709,15-15,15c-8.291,0-15-6.709-15-15v-15h-45
			c-4.819,0-9.346-2.314-12.173-6.226c-2.813-3.911-3.589-8.95-2.051-13.521l30-90c2.607-7.866,11.03-12.129,18.97-9.478
			c7.852,2.607,12.1,11.104,9.478,18.97L366.815,181H391v-15c0-8.291,6.709-15,15-15c8.291,0,15,6.709,15,15V226z" fill="#E80000"/>
	</g>
</g>
<g>
</g>
<g>
</g>
<g>
</g>
<g>
</g>
<g>
</g>
<g>
</g>
<g>
</g>
<g>
</g>
<g>
</g>
<g>
</g>
<g>
</g>
<g>
</g>
<g>
</g>
<g>
</g>
<g>
</g>
</svg>
