<?xml version="1.0" encoding="iso-8859-1"?>
<!-- Generator: Adobe Illustrator 19.0.0, SVG Export Plug-In . SVG Version: 6.00 Build 0)  -->
<svg xmlns="http://www.w3.org/2000/svg" xmlns:xlink="http://www.w3.org/1999/xlink" version="1.1" id="Capa_1" x="0px" y="0px" viewBox="0 0 511.997 511.997" style="enable-background:new 0 0 511.997 511.997;" xml:space="preserve" width="512px" height="512px">
<g>
	<g>
		<g>
			<path d="M508.872,478.706l-75.294-75.294c0,0-0.009-0.02-0.017-0.027L152.79,122.614c-0.008-0.008-0.018-0.009-0.018-0.009     L33.292,3.124c-4.167-4.165-10.919-4.165-15.086,0L3.125,18.206c-4.167,4.165-4.167,10.919,0,15.085L120.82,150.988     c-9.064,19.469-14.155,40.492-14.155,62.345v32c0,71.01-16.708,95.958-28.917,114.177c-7.063,10.552-13.75,20.521-13.75,35.156     c0,34.775,72.495,46.978,131.271,51.181c8.241,26.383,32.432,44.819,60.729,44.819c28.388,0,52.634-18.56,60.797-45.081     c27.87-2.087,60.012-5.984,85.352-13.271l76.559,76.559c4.167,4.165,10.919,4.165,15.086,0l15.081-15.082     C513.039,489.626,513.039,482.872,508.872,478.706z" fill="#757575"/>
			<path d="M399.895,339.562c2.063,2.063,4.792,3.125,7.542,3.125c2,0,4.021-0.563,5.792-1.708c4.229-2.74,5.958-8.052,4.188-12.75     c-8.125-21.365-12.083-48.479-12.083-82.896v-32c0-67.512-45.066-124.63-106.667-143.043v-6.29     c0-23.531-19.146-42.667-42.667-42.667s-42.667,19.135-42.667,42.667v6.422c-15.488,4.647-30.263,11.664-43.75,21.255     c-2.563,1.813-4.188,4.667-4.438,7.802c-0.271,3.125,0.854,6.208,3.083,8.427L399.895,339.562z M234.665,63.999     c0-11.76,9.563-21.333,21.333-21.333c11.771,0,21.333,9.573,21.333,21.333v1.704c-6.987-1.007-14.072-1.704-21.333-1.704     c-7.197,0-14.306,0.634-21.333,1.647V63.999z" fill="#757575"/>
		</g>
	</g>
</g>
<g>
</g>
<g>
</g>
<g>
</g>
<g>
</g>
<g>
</g>
<g>
</g>
<g>
</g>
<g>
</g>
<g>
</g>
<g>
</g>
<g>
</g>
<g>
</g>
<g>
</g>
<g>
</g>
<g>
</g>
</svg>
