<svg xmlns="http://www.w3.org/2000/svg" height="511pt" version="1.1" viewBox="0 -30 511.9992 511" width="511pt">
<g id="surface1">
<path d="M 121 90.5 L 121 105.5 C 121 113.785156 127.714844 120.5 136 120.5 L 436 120.5 C 444.285156 120.5 451 113.785156 451 105.5 L 451 90.5 C 451 73.929688 437.570312 60.5 421 60.5 L 388.238281 60.5 C 389.917969 55.785156 391 50.785156 391 45.5 C 391 20.6875 370.8125 0.5 346 0.5 C 321.378906 0.5 299.683594 12.585938 286 30.960938 C 272.316406 12.585938 250.621094 0.5 226 0.5 C 201.1875 0.5 181 20.6875 181 45.5 C 181 50.785156 182.082031 55.785156 183.761719 60.5 L 151 60.5 C 134.429688 60.5 121 73.929688 121 90.5 Z M 346 30.5 C 354.277344 30.5 361 37.222656 361 45.5 C 361 53.777344 354.277344 60.5 346 60.5 L 303.5625 60.5 C 309.761719 43.039062 326.445312 30.5 346 30.5 Z M 226 30.5 C 245.554688 30.5 262.238281 43.039062 268.4375 60.5 L 226 60.5 C 217.722656 60.5 211 53.777344 211 45.5 C 211 37.222656 217.722656 30.5 226 30.5 Z M 226 30.5 " style=" stroke:none;fill-rule:nonzero; fill=#6A6C6F;fill-opacity:1;"  fill="#6A6C6F"/>
<path d="M 30 420.5 C 46.570312 420.5 60 407.066406 60 390.5 L 60 210.5 C 60 193.929688 46.570312 180.5 30 180.5 L 15 180.5 C 6.714844 180.5 0 187.214844 0 195.5 L 0 405.5 C 0 413.785156 6.714844 420.5 15 420.5 Z M 30 420.5 " style=" stroke:none;fill-rule:nonzero; fill=#6A6C6F;fill-opacity:1;" fill="#6A6C6F" />
<path d="M 90 390.5 C 90 393.523438 89.539062 396.421875 89.109375 399.324219 L 176.632812 442.589844 C 186.988281 447.761719 198.59375 450.5 210.164062 450.5 C 214.765625 450.5 345.660156 450.5 345.660156 450.5 C 356.808594 450.5 367.707031 447.410156 377.199219 441.550781 L 500.015625 354.722656 C 513.242188 344.761719 515.9375 325.921875 506.007812 312.695312 C 497 300.6875 479.542969 295.484375 464.007812 306.707031 L 371.679688 358.785156 C 369.527344 359.914062 367.140625 360.5 364.707031 360.5 C 359.300781 360.5 186.558594 360.5 193 360.5 C 184.707031 360.5 178 353.792969 178 345.5 C 178 337.210938 184.707031 330.5 193 330.5 L 331 330.5 C 347.570312 330.5 361 317.066406 361 300.5 C 361 283.929688 347.570312 270.5 331 270.5 L 260.539062 270.5 L 189.4375 223.097656 C 177.089844 214.851562 162.703125 210.5 147.835938 210.5 L 90 210.5 Z M 90 390.5 " style=" stroke:none;fill-rule:nonzero; fill=#6A6C6F;fill-opacity:1;"  fill="#6A6C6F"/>
<path d="M 421 296.007812 L 421 150.5 L 301 150.5 L 301 165.5 C 301 173.789062 294.289062 180.5 286 180.5 C 277.710938 180.5 271 173.789062 271 165.5 L 271 150.5 L 151 150.5 L 151 180.734375 C 170.691406 181.324219 189.691406 187.199219 206.09375 198.152344 L 269.621094 240.5 L 331 240.5 C 364.089844 240.5 391 267.410156 391 300.5 C 391 305.171875 390.457031 309.714844 389.445312 314.0625 Z M 421 296.007812 " style=" stroke:none;fill-rule:nonzero; fill=#6A6C6F;fill-opacity:1;"  fill="#6A6C6F"/>
</g>
</svg>